<svg viewBox="0 0 64 64" xmlns="http://www.w3.org/2000/svg"><path d="m0 46.5h64v9h-64z" fill="#699635"/><path d="m0 8.5h64v38h-64z" fill="#83bf4f"/><path d="m24 46.5h16v9h-16z" fill="#94989b"/><path d="m4 12.5h56v30h-56z" fill="#699635"/><path d="m7 15.5h50v24h-50z" fill="#83bf4f"/><circle cx="45" cy="27.5" fill="#699635" r="8"/><path d="m24 8.5h16v38h-16z" fill="#d0d0d0"/><path d="m16 26.5c-1.1 0-2-.9-2-2s.9-2 2-2 2 .9 2 2h2c0-1.9-1.3-3.4-3-3.9v-1.1h-2v1.1c-1.7.4-3 2-3 3.9 0 2.2 1.8 4 4 4 1.1 0 2 .9 2 2s-.9 2-2 2-2-.9-2-2h-2c0 1.9 1.3 3.4 3 3.9v1.1h2v-1.1c1.7-.4 3-2 3-3.9 0-2.2-1.8-4-4-4" fill="#fff"/></svg>