<svg viewBox="0 0 64 64" xmlns="http://www.w3.org/2000/svg"><path d="m9.5 31.5h45v24.9h-45z" fill="#4d4d4d"/><path d="m2 60.1h60v1.9h-60zm7.5-3.7h45v1.9h-45zm7.5-3.8h30v1.9h-30z" fill="#acb8bf"/><path d="m41 36.9h7v12h-7z" fill="#89664c"/><path d="m42 37.9h5v10h-5z" fill="#b4d7ee"/><path d="m44 37.4h1v11h-1zm-28-.5h7v12h-7z" fill="#89664c"/><path d="m17 37.9h5v10h-5z" fill="#b4d7ee"/><path d="m19 37.4h1v11h-1z" fill="#89664c"/><path d="m5.8 58.2h52.5v1.9h-52.5zm7.4-3.7h37.5v1.9h-37.5z" fill="#dae3ea"/><path d="m4.8 27.8h54.4v1.9h-54.4z" fill="#94989b"/><path d="m2 29.6h60v1.9h-60z" fill="#dae3ea"/><path d="m32 4.8-30 16.4 2.5 3.8 27.5-18.3 27.5 18.3 2.5-3.8z" fill="#94989b"/><g fill="#dae3ea"><path d="m32 2-30 19.2v2.9l30-19.3 30 19.3v-2.9z"/><path d="m32 6.7-30 19.2v1.9h60v-1.9z"/></g><path d="m32 9.5-24.9 16.4h49.8z" fill="#acb8bf"/><path d="m32 17.4c-1 0-1.8-.7-1.8-1.6s.8-1.6 1.8-1.6 1.8.7 1.8 1.6h1.8c0-1.5-1.1-2.7-2.7-3v-.9h-1.8v.9c-1.5.4-2.7 1.6-2.7 3 0 1.7 1.6 3.1 3.6 3.1 1 0 1.8.7 1.8 1.6s-.8 1.6-1.8 1.6-1.8-.7-1.8-1.6h-1.8c0 1.5 1.1 2.7 2.7 3v.9h1.8v-.9c1.5-.4 2.7-1.6 2.7-3 0-1.7-1.6-3.1-3.6-3.1" fill="#fff"/><path d="m6.5 33.5h6v22.7h-6z" fill="#dae3ea"/><path d="m5.8 56.2h7.5v2h-7.5zm0-24.7h7.5v2h-7.5z" fill="#94989b"/><path d="m7.1 34.4h.7v21h-.7zm4.1 0h.7v21h-.7zm-1.4 0h.7v21h-.7zm-1.3 0h.7v21h-.7z" fill="#c8d0d6"/><path d="m51.5 33.5h6v22.7h-6z" fill="#dae3ea"/><path d="m50.8 56.2h7.5v2h-7.5zm0-24.7h7.5v2h-7.5z" fill="#94989b"/><path d="m52.1 34.4h.7v21h-.7zm4.1 0h.7v21h-.7zm-1.4 0h.7v21h-.7zm-1.3 0h.7v21h-.7z" fill="#c8d0d6"/><path d="m26.6 42.3v9.8h10.7v-9.8c.1-7.3-10.7-7.1-10.7 0" fill="#89664c"/><path d="m27.4 42.7v9.4h9.2v-9.4c0-6.7-9.2-6.6-9.2 0" fill="#594640"/><path d="m27.6 42.8v9.3h8.9v-9.3c-.1-6.7-8.9-6.6-8.9 0" fill="#a37d64"/><path d="m26.1 52.1h11.9v.6h-11.9z" fill="#94989b"/><path d="m32.6 42.5h3.1c-.1-2.2-1.5-3.4-3.1-3.7zm-1 0v-3.7c-1.5.2-3 1.5-3.1 3.7z" fill="#594640"/><path d="m32.5 42.5h3.1c-.1-2.2-1.5-3.4-3.1-3.7zm-1 0v-3.7c-1.5.2-3 1.5-3.1 3.7z" fill="#89664c"/><path d="m32.6 43.5h3.1v3h-3.1zm-4.1 0h3.1v3h-3.1z" fill="#594640"/><path d="m32.5 43.5h3.1v3h-3.1zm-4.1 0h3.1v3h-3.1z" fill="#89664c"/><path d="m32.6 47.9h3.1v3h-3.1zm-4.1 0h3.1v3h-3.1z" fill="#594640"/><path d="m32.5 47.8h3.1v3h-3.1zm-4.1 0h3.1v3h-3.1z" fill="#89664c"/><path d="m34.9 44.8h1.3v2.6h-1.3z" fill="#dae3ea"/><path d="m35 44.9h1.1v2.4h-1.1z" fill="#acb8bf"/><path d="m35.7 47.1-.1-.5.1-.1c0-.1-.1-.2-.2-.2s-.2.1-.2.2 0 .1.1.1l-.1.5z" fill="#3e4347"/><circle cx="35.5" cy="45.6" fill="#94989b" r=".5"/><circle cx="35.5" cy="45.5" fill="#dae3ea" r=".5"/></svg>